<?xml version="1.0" encoding="utf-8"?>
<!-- Generator: Adobe Illustrator 24.0.3, SVG Export Plug-In . SVG Version: 6.00 Build 0)  -->
<svg version="1.1" id="Layer_1" xmlns="http://www.w3.org/2000/svg" xmlns:xlink="http://www.w3.org/1999/xlink" x="0px" y="0px"
	 width="120px" height="48px" viewBox="0 0 120 48" style="enable-background:new 0 0 120 48;" xml:space="preserve">
<style type="text/css">
	.st0{fill:url(#SVGID_1_);}
	.st1{fill:none;stroke:#FF6845;stroke-miterlimit:10;}
	.st2{fill:#FFFFFF;}
	.st3{fill:#112942;}
</style>
<g>
	<g>
		<g>
			
				<radialGradient id="SVGID_1_" cx="24.4831" cy="50.1017" r="46.6008" gradientTransform="matrix(1 0 0 -1 0 50)" gradientUnits="userSpaceOnUse">
				<stop  offset="0" style="stop-color:#33669A"/>
				<stop  offset="0.266" style="stop-color:#1F3F6E"/>
				<stop  offset="0.5318" style="stop-color:#0E1E49"/>
				<stop  offset="0.7463" style="stop-color:#040932"/>
				<stop  offset="0.8821" style="stop-color:#00022A"/>
			</radialGradient>
			<path class="st0" d="M0.8,5.8c0-2.8,2.2-5,5-5h36.5c2.8,0,5,2.2,5,5v36.5c0,2.8-2.2,5-5,5H5.8c-2.8,0-5-2.2-5-5V5.8z"/>
			<path class="st1" d="M0.8,5.8c0-2.8,2.2-5,5-5h36.5c2.8,0,5,2.2,5,5v36.5c0,2.8-2.2,5-5,5H5.8c-2.8,0-5-2.2-5-5V5.8z"/>
		</g>
	</g>
</g>
<g>
	<path class="st2" d="M19.4,12.9c-3.5,0-6.7,1.4-8.9,4.1c-3.9,4.7-3,12.3,2.1,15.9c2.1,1.5,4.6,2.2,7.3,2.2c1.6,0,3.5,0,5.2,0V27
		h3.6c0,0.8,0,11.9,0,11.9c-2.4,0-7.9,0-9.2,0c-2.3,0-4.5-0.5-6.6-1.4c-4.1-2.1-7.1-5.8-8.2-10.2c-1-4.4,0.1-9,3-12.5
		S15,9.2,19.6,9.2h4.3v3.7H19.4z"/>
	<path class="st2" d="M25,21h3.6v-8.1h6.5c2.9,0,5.3,2.3,4.9,5.2c-0.1,1.5-1.2,3-2.5,3.6c-0.9,0.4-1.9,0.5-2.9,0.5
		c-2,0-18.3,0-18.3,0c-2,0-2,3.6,0,3.6h16.5c0,0,3.3,0.1,4.8-0.3c5.3-1.5,7.6-7.7,4.8-12.2C40.9,10.8,38,9.2,35,9.2H25V21L25,21z"/>
</g>
<g>
	<path class="st3" d="M54,9.1h2l2.9,9.9l2.9-9.9h1.5l2.9,9.9L69,9.1h2l-3.8,13h-1.8l-2.9-9.8l-2.9,9.8h-1.8L54,9.1z"/>
	<path class="st3" d="M72.7,21.2c-0.9-0.8-1.4-2-1.4-3.5s0.4-2.6,1.3-3.5c0.8-0.9,2-1.3,3.6-1.3c1,0,1.9,0.2,2.6,0.6
		c0.7,0.4,1.3,0.9,1.6,1.6c0.4,0.7,0.5,1.5,0.5,2.4v0.9H73c0.1,0.8,0.4,1.5,1.1,1.9s1.5,0.6,2.7,0.6c0.6,0,1.1-0.1,1.7-0.2
		s1.1-0.2,1.5-0.4v1.5c-0.4,0.2-0.9,0.3-1.6,0.4s-1.3,0.2-1.9,0.2C74.9,22.4,73.6,22,72.7,21.2z M79.2,17.1c0-0.8-0.3-1.5-0.8-2
		s-1.3-0.7-2.2-0.7c-0.9,0-1.7,0.2-2.2,0.7s-0.8,1.1-0.8,1.9h6V17.1z"/>
	<path class="st3" d="M86.4,22c-0.6-0.3-1.1-0.7-1.6-1.2v1.3H83V8.4h1.9v6c0.4-0.5,0.9-0.9,1.6-1.1c0.6-0.2,1.3-0.4,2.1-0.4
		c0.9,0,1.7,0.2,2.4,0.6c0.7,0.4,1.3,1,1.7,1.7c0.4,0.7,0.6,1.5,0.6,2.5c0,0.9-0.2,1.8-0.6,2.5s-1,1.3-1.7,1.7
		c-0.7,0.4-1.5,0.6-2.4,0.6C87.7,22.4,87,22.3,86.4,22z M89.7,20.5c0.5-0.3,0.9-0.6,1.2-1.1c0.3-0.5,0.4-1.1,0.4-1.7
		s-0.1-1.2-0.4-1.7c-0.3-0.5-0.7-0.9-1.2-1.2s-1-0.4-1.6-0.4c-0.8,0-1.4,0.2-2,0.6c-0.6,0.4-1,1-1.2,1.6v2c0.2,0.7,0.6,1.2,1.2,1.6
		s1.3,0.6,2,0.6C88.7,20.9,89.3,20.8,89.7,20.5z"/>
	<path class="st3" d="M54.4,25.9h4.2c1.4,0,2.6,0.3,3.7,0.8c1,0.5,1.8,1.3,2.4,2.2c0.6,1,0.8,2.1,0.8,3.4c0,2.2-0.6,3.8-1.9,4.9
		c-1.2,1.1-3,1.7-5.2,1.7h-3.9v-13H54.4z M58.3,37.3c1.7,0,3-0.4,3.9-1.3c0.9-0.9,1.3-2.1,1.3-3.7c0-1.5-0.4-2.7-1.3-3.5
		c-0.9-0.9-2.1-1.3-3.6-1.3h-2.3v9.8H58.3z"/>
	<path class="st3" d="M68.5,37.9c-0.9-0.8-1.4-2-1.4-3.5s0.4-2.6,1.3-3.5c0.8-0.9,2-1.3,3.6-1.3c1,0,1.9,0.2,2.6,0.6
		s1.3,0.9,1.6,1.6c0.4,0.7,0.5,1.5,0.5,2.4v0.9h-7.9c0.1,0.8,0.4,1.5,1.1,1.9s1.5,0.6,2.7,0.6c0.6,0,1.1-0.1,1.7-0.2
		s1.1-0.2,1.5-0.4v1.5c-0.4,0.2-0.9,0.3-1.6,0.4c-0.7,0.1-1.3,0.2-1.9,0.2C70.8,39.2,69.5,38.8,68.5,37.9z M75,33.8
		c0-0.8-0.3-1.5-0.8-2s-1.3-0.7-2.2-0.7c-0.9,0-1.7,0.2-2.2,0.7S69,32.9,69,33.7L75,33.8L75,33.8z"/>
	<path class="st3" d="M80.1,38.9c-0.7-0.2-1.2-0.4-1.6-0.6v-1.6c0.5,0.3,1,0.5,1.7,0.7c0.6,0.2,1.2,0.3,1.8,0.3
		c0.7,0,1.2-0.1,1.5-0.2c0.3-0.2,0.5-0.4,0.5-0.8c0-0.3-0.1-0.5-0.2-0.7s-0.4-0.3-0.7-0.5c-0.3-0.1-0.9-0.3-1.5-0.5
		c-0.7-0.2-1.3-0.4-1.7-0.6s-0.8-0.5-1-0.8s-0.3-0.8-0.3-1.3c0-0.9,0.3-1.5,1-1.9s1.6-0.7,2.7-0.7c0.6,0,1.2,0.1,1.8,0.2
		c0.6,0.1,1,0.3,1.4,0.5V32c-0.4-0.2-0.8-0.4-1.3-0.5s-1.1-0.2-1.6-0.2c-0.7,0-1.2,0.1-1.5,0.2c-0.3,0.2-0.5,0.4-0.5,0.9
		c0,0.3,0.1,0.5,0.2,0.6c0.1,0.2,0.4,0.3,0.7,0.4c0.3,0.1,0.9,0.3,1.6,0.5c1.1,0.3,1.9,0.7,2.4,1.1c0.4,0.4,0.7,1,0.7,1.8
		s-0.3,1.4-1,1.8c-0.6,0.5-1.6,0.7-2.8,0.7C81.5,39.2,80.8,39.1,80.1,38.9z"/>
	<path class="st3" d="M88.2,27.9c-0.2-0.2-0.3-0.5-0.3-0.8s0.1-0.6,0.3-0.8c0.2-0.2,0.5-0.3,0.8-0.3s0.6,0.1,0.8,0.3
		c0.2,0.2,0.3,0.5,0.3,0.8s-0.1,0.6-0.3,0.8c-0.2,0.2-0.5,0.3-0.8,0.3C88.7,28.2,88.5,28.1,88.2,27.9z M88.1,30H90v8.9h-1.9V30z"/>
	<path class="st3" d="M95.5,43c-0.6-0.1-1.1-0.2-1.5-0.4v-1.5c0.9,0.4,2,0.6,3.2,0.6s2-0.3,2.5-0.8s0.8-1.3,0.8-2.3v-1
		c-0.8,1-2,1.5-3.6,1.5c-0.9,0-1.7-0.2-2.4-0.6c-0.7-0.4-1.3-1-1.7-1.7c-0.4-0.7-0.6-1.5-0.6-2.5c0-0.9,0.2-1.8,0.6-2.5
		s1-1.3,1.7-1.7c0.7-0.4,1.5-0.6,2.4-0.6c0.8,0,1.5,0.1,2.1,0.4c0.6,0.2,1.1,0.6,1.6,1.2V30h1.8v8.5c0,1.5-0.4,2.7-1.3,3.5
		s-2.2,1.2-3.9,1.2C96.7,43.2,96.1,43.1,95.5,43z M99.4,37.1c0.6-0.4,1-1,1.2-1.6v-2c-0.2-0.7-0.6-1.2-1.2-1.6s-1.3-0.6-2-0.6
		c-0.6,0-1.2,0.1-1.6,0.4c-0.5,0.3-0.9,0.6-1.2,1.1c-0.3,0.5-0.4,1.1-0.4,1.7c0,0.6,0.1,1.2,0.4,1.7s0.7,0.9,1.2,1.1
		c0.5,0.3,1,0.4,1.6,0.4C98.1,37.7,98.8,37.5,99.4,37.1z"/>
	<path class="st3" d="M104.9,30h1.8v1.3c0.4-0.5,0.9-0.9,1.6-1.2c0.6-0.3,1.3-0.4,1.9-0.4c1.2,0,2.1,0.3,2.7,1
		c0.6,0.6,0.9,1.5,0.9,2.6V39h-1.9v-5.5c0-1.5-0.7-2.2-2.1-2.2c-0.6,0-1.2,0.1-1.7,0.4s-1,0.7-1.3,1.3v6h-1.9V30z"/>
</g>
</svg>
